<?xml version="1.0" standalone="no"?>
<!DOCTYPE svg PUBLIC "-//W3C//DTD SVG 20010904//EN"
 "http://www.w3.org/TR/2001/REC-SVG-20010904/DTD/svg10.dtd">
<svg version="1.0" xmlns="http://www.w3.org/2000/svg"
 width="180.000000pt" height="180.000000pt" viewBox="0 0 180.000000 180.000000"
 preserveAspectRatio="xMidYMid meet">

<g transform="translate(0.000000,180.000000) scale(0.100000,-0.100000)"
fill="#000000" stroke="none">
<path d="M105 1781 c-48 -22 -69 -44 -90 -94 -13 -32 -15 -134 -15 -789 0
-709 2 -755 19 -793 22 -48 44 -69 94 -90 32 -13 134 -15 789 -15 709 0 755 2
793 19 48 22 69 44 90 94 13 32 15 134 15 787 0 653 -2 755 -15 787 -21 50
-42 72 -90 94 -38 18 -84 19 -795 19 -711 0 -757 -1 -795 -19z m905 -351 c31
-9 41 -21 92 -117 73 -139 134 -290 194 -478 26 -82 61 -184 79 -225 39 -92
48 -127 35 -135 -5 -3 -10 -1 -10 5 0 7 -5 7 -13 -2 -11 -10 -11 -20 1 -60 11
-38 11 -52 2 -63 -10 -12 -17 -10 -46 13 -18 14 -36 39 -40 54 -3 16 -10 26
-14 23 -12 -7 -61 92 -90 180 -28 88 -31 91 -42 70 -8 -14 -19 -16 -57 -11
l-46 5 40 -12 c37 -12 38 -13 15 -20 -24 -6 -155 20 -324 64 -57 15 -85 18
-100 11 -16 -7 -40 -56 -89 -180 -61 -152 -70 -169 -88 -165 -21 6 -22 23 -4
81 11 32 -10 27 -24 -6 -14 -34 -65 -92 -80 -92 -26 0 -10 107 38 248 l48 144
-24 9 c-13 5 -29 9 -34 9 -18 0 -9 42 11 47 19 5 19 6 -5 35 -14 16 -25 33
-25 37 0 20 30 31 85 31 l62 0 28 68 c89 213 172 341 274 418 49 38 63 39 151
14z m-293 -706 c-3 -3 -12 -4 -19 -1 -8 3 -5 6 6 6 11 1 17 -2 13 -5z"/>
<path d="M951 1248 c12 -22 11 -22 -8 -6 -19 17 -20 17 -40 -5 -33 -36 -76
-107 -70 -114 4 -3 -9 -33 -28 -67 -18 -33 -43 -82 -53 -107 l-20 -46 78 -27
c42 -14 127 -35 189 -45 124 -22 149 -31 111 -42 -24 -7 -24 -7 -2 -8 12 -1
22 -5 22 -11 0 -5 5 -10 11 -10 6 0 8 9 4 20 -4 12 -8 35 -10 53 -4 47 -106
288 -118 280 -5 -3 -7 -1 -4 5 10 15 -3 43 -16 35 -6 -3 -7 -1 -3 5 6 11 -38
112 -50 112 -2 0 1 -10 7 -22z"/>
<path d="M1270 495 c0 -5 5 -17 10 -25 5 -8 10 -10 10 -5 0 6 -5 17 -10 25 -5
8 -10 11 -10 5z"/>
</g>
</svg>
