<?xml version="1.0" standalone="no"?>
<!DOCTYPE svg PUBLIC "-//W3C//DTD SVG 20010904//EN"
 "http://www.w3.org/TR/2001/REC-SVG-20010904/DTD/svg10.dtd">
<svg version="1.0" xmlns="http://www.w3.org/2000/svg"
 width="16.000000pt" height="16.000000pt" viewBox="0 0 16.000000 16.000000"
 preserveAspectRatio="xMidYMid meet">

<g transform="translate(0.000000,16.000000) scale(0.100000,-0.100000)"
fill="#000000" stroke="none">
<path d="M4 147 c-3 -8 -4 -43 -2 -78 l3 -64 75 0 75 0 0 75 0 75 -73 3 c-55
2 -74 -1 -78 -11z m115 -62 c24 -64 26 -77 7 -53 -7 10 -27 21 -44 24 -25 5
-31 2 -37 -15 -9 -28 -28 -27 -20 2 8 27 26 68 38 85 18 24 36 11 56 -43z"/>
<path d="M71 102 c-9 -17 -8 -22 10 -27 27 -9 30 -5 14 24 -12 24 -13 24 -24
3z"/>
</g>
</svg>
