<?xml version="1.0" standalone="no"?>
<!DOCTYPE svg PUBLIC "-//W3C//DTD SVG 20010904//EN"
 "http://www.w3.org/TR/2001/REC-SVG-20010904/DTD/svg10.dtd">
<svg version="1.0" xmlns="http://www.w3.org/2000/svg"
 width="938.000000pt" height="171.000000pt" viewBox="0 0 938.000000 171.000000"
 preserveAspectRatio="xMidYMid meet">

<g transform="translate(0.000000,171.000000) scale(0.100000,-0.100000)"
fill="#000000" stroke="none">
<path d="M2171 1604 c-12 -15 -21 -35 -21 -46 0 -22 43 -68 63 -68 8 0 18 -8
22 -17 9 -23 22 -226 30 -478 l7 -200 -36 -82 c-43 -96 -44 -122 -11 -161 48
-58 131 -47 154 19 7 20 15 196 21 453 6 232 13 433 16 449 5 25 9 27 52 27
107 0 215 -19 253 -44 92 -61 124 -127 117 -236 -11 -152 -116 -211 -288 -163
-59 16 -61 16 -88 -4 -58 -43 -54 -114 8 -146 57 -30 180 -20 264 22 160 79
262 259 242 429 -9 74 -35 119 -106 185 -89 83 -109 87 -421 87 l-258 0 -20
-26z"/>
<path d="M4659 1585 c-36 -20 -63 -78 -52 -112 14 -42 55 -67 96 -59 84 16
115 99 58 157 -32 32 -62 36 -102 14z"/>
<path d="M6351 1448 c-22 -23 -34 -66 -36 -133 -3 -61 -3 -62 -30 -69 -58 -15
-58 -97 -1 -116 34 -11 34 -12 40 -83 3 -40 8 -153 11 -252 3 -99 10 -197 16
-218 21 -78 124 -86 155 -12 14 34 9 68 -22 145 -14 36 -17 72 -17 175 1 72 4
154 8 183 l6 52 102 0 c122 0 147 11 147 66 0 21 -8 42 -21 55 -20 20 -28 21
-119 15 l-97 -6 -5 80 c-4 72 -8 84 -33 110 -35 36 -76 39 -104 8z"/>
<path d="M3159 1231 c-36 -36 -36 -57 -3 -151 l25 -74 -12 -206 c-13 -227 -10
-250 42 -279 22 -12 32 -12 56 -2 48 19 53 44 53 244 1 126 5 194 14 220 17
48 61 105 92 119 20 9 29 6 71 -29 67 -55 78 -57 114 -25 59 53 48 162 -21
197 -64 33 -138 7 -230 -81 l-60 -57 0 47 c0 39 -5 53 -29 77 -38 38 -74 38
-112 0z"/>
<path d="M4080 1244 c-195 -52 -350 -258 -350 -464 0 -108 91 -240 177 -256
19 -4 70 -4 113 -2 95 6 165 37 244 109 146 133 202 313 145 465 -50 134 -174
190 -329 148z m111 -167 c28 -15 54 -40 73 -70 54 -88 44 -192 -26 -272 -118
-133 -331 -71 -368 108 -19 95 28 194 112 236 60 30 150 29 209 -2z"/>
<path d="M4647 1240 c-15 -12 -29 -36 -32 -54 -4 -18 -2 -133 4 -257 14 -282
3 -491 -34 -637 -32 -131 -32 -172 -2 -200 51 -48 124 -15 147 67 6 20 17 236
26 481 8 245 16 471 17 502 2 50 -1 60 -27 87 -35 36 -63 39 -99 11z"/>
<path d="M5250 1241 c-135 -43 -221 -114 -277 -229 -36 -72 -38 -81 -38 -171
0 -83 4 -104 26 -151 31 -66 86 -122 146 -151 57 -28 158 -30 228 -6 100 34
194 129 181 181 -10 39 -35 40 -95 2 -104 -64 -172 -68 -253 -17 -44 28 -94
91 -100 125 -3 19 3 20 123 17 142 -3 159 4 159 64 0 55 -25 65 -157 65 -130
0 -137 6 -74 63 78 70 136 86 228 63 91 -24 127 -21 152 10 82 104 -78 190
-249 135z"/>
<path d="M5920 1245 c-121 -34 -232 -125 -283 -233 -30 -62 -32 -75 -32 -172
0 -95 3 -111 28 -162 31 -62 90 -121 146 -146 60 -26 175 -22 242 10 101 46
181 136 159 177 -17 32 -32 30 -121 -17 -77 -40 -92 -44 -130 -38 -77 12 -139
54 -171 115 -51 97 -31 200 52 275 58 53 106 62 210 40 107 -21 136 -15 156
32 18 44 4 79 -42 106 -44 26 -146 32 -214 13z"/>
<path d="M7105 1246 c-179 -57 -286 -198 -230 -306 20 -38 62 -62 180 -100
190 -62 227 -103 136 -150 -63 -32 -101 -34 -196 -9 l-88 22 -29 -32 c-83 -93
19 -179 181 -151 185 31 332 165 318 288 -4 39 -12 53 -46 84 -25 21 -71 47
-114 62 -39 14 -101 36 -136 48 -78 28 -96 51 -63 78 36 30 89 35 162 16 96
-24 123 -22 154 15 33 39 33 69 0 103 -45 45 -145 59 -229 32z"/>
</g>
</svg>
